<svg width="171" height="107" viewBox="0 0 171 107" fill="none" xmlns="http://www.w3.org/2000/svg">
<path d="M161.668 32.8225L137.271 8.42592C131.841 2.99622 124.624 0.0114746 116.95 0.0114746C109.277 0.0114746 102.057 2.99622 96.6274 8.42592L72.2318 32.8225C61.0334 44.0206 61.0334 62.257 72.2318 73.4657L86.9746 88.1989L96.6274 97.8517C102.057 103.281 109.266 106.266 116.95 106.266C117.342 106.266 117.723 106.266 118.104 106.234C125.343 105.949 132.116 103.006 137.271 97.8411L161.668 73.4445C162.61 72.5131 163.457 71.5288 164.23 70.5021C172.792 59.2514 171.935 43.0786 161.668 32.8014V32.8225ZM147.94 55.3776L119.193 84.124C117.955 85.3623 115.945 85.3623 114.706 84.124L85.9585 55.3776C84.7201 54.1392 84.7201 52.1282 85.9585 50.8899L114.706 22.143C115.945 20.9046 117.955 20.9046 119.193 22.143L147.94 50.8899C149.178 52.1282 149.178 54.1392 147.94 55.3776Z" fill="#02081E"/>
<path d="M100.704 36.1661L85.959 50.9102C85.3452 51.524 85.0287 52.3388 85.0287 53.1432C85.0287 53.9476 84.7313 54.7627 84.1068 55.3766L55.3609 84.1228C54.1226 85.3611 52.1113 85.3611 50.8729 84.1228L22.1261 55.3766C20.8877 54.1382 20.8877 52.1378 22.1261 50.8995L50.8729 22.1526C52.1113 20.9143 54.1226 20.9143 55.3609 22.1526L69.3852 36.1767C70.2214 35.0019 71.1941 33.8801 72.2419 32.8322L85.0499 20.0252L73.4496 8.42493C68.0093 2.99523 60.7902 0 53.1272 0C45.4431 0 38.225 2.99523 32.8059 8.42493L8.39857 32.8322C-2.79952 44.0303 -2.79952 62.2664 8.39857 73.4645L23.153 88.2093L32.795 97.8505C38.2247 103.28 45.4433 106.276 53.1169 106.276C53.4979 106.276 53.8894 106.254 54.2704 106.244C61.51 105.958 68.2834 103.005 73.4379 97.8505L85.0382 86.2714L97.8239 73.4645C98.7553 72.5331 99.6031 71.5487 100.376 70.5327C100.482 70.3951 100.576 70.2681 100.671 70.1199C108.069 60.0654 108.049 46.2423 100.683 36.1661H100.704Z" fill="#675CF5"/>
</svg>
