<svg width="805" height="200" viewBox="0 0 805 200" fill="none" xmlns="http://www.w3.org/2000/svg">
<path fill-rule="evenodd" clip-rule="evenodd" d="M35.6138 0H164.386C184.055 0 200 15.9448 200 35.6138V164.386C200 184.055 184.055 200 164.386 200H35.6138C15.9449 200 0 184.055 0 164.386V35.6138C0 15.9448 15.9449 0 35.6138 0Z" fill="#316BFF"/>
<path d="M94.5369 53.5718H141.179C144.079 53.5718 146.429 55.9221 146.429 58.8215V66.1794C146.429 69.0787 144.079 71.4291 141.179 71.4291H94.5369C91.6376 71.4291 89.2872 69.0787 89.2872 66.1794V58.8215C89.2872 55.9221 91.6376 53.5718 94.5369 53.5718Z" fill="white"/>
<path d="M94.5369 91.0754H132.847C135.746 91.0754 138.097 93.4258 138.097 96.3251V103.683C138.097 106.582 135.746 108.933 132.847 108.933H94.5369C91.6376 108.933 89.2872 106.582 89.2872 103.683V96.3251C89.2872 93.4258 91.6376 91.0754 94.5369 91.0754Z" fill="white"/>
<path d="M146.429 133.82V141.178C146.429 144.076 144.077 146.428 141.179 146.428H107.657H74.1345C63.0976 145.722 54.2781 136.903 53.5726 125.866V58.8215C53.5726 55.9236 55.9244 53.5718 58.8223 53.5718H66.1802C69.078 53.5718 71.4299 55.9236 71.4299 58.8215V114.922C71.4299 122.464 77.5363 128.571 85.079 128.571H141.179C144.077 128.571 146.429 130.923 146.429 133.82Z" fill="white"/>
<path d="M628.846 34.3454H619.111C616.211 34.3454 613.861 36.6957 613.861 39.595V49.33C613.861 52.2294 616.211 54.5797 619.111 54.5797H628.846C631.745 54.5797 634.095 52.2294 634.095 49.33V39.595C634.095 36.6957 631.745 34.3454 628.846 34.3454Z" fill="white"/>
<path d="M276.437 38.3771V158.809C276.437 161.707 274.085 164.059 271.187 164.059H262.393C259.495 164.059 257.143 161.707 257.143 158.809V38.3771C257.143 35.4793 259.495 33.1274 262.393 33.1274H271.187C274.085 33.1274 276.437 35.4793 276.437 38.3771Z" fill="white"/>
<path d="M314.083 125.102C315.772 139.154 327.38 148.326 344.237 148.326C352.049 148.326 361.549 145.848 367.747 141.338C369.822 139.826 372.67 140.002 374.518 141.791L379.633 146.756C381.875 148.931 381.758 152.593 379.339 154.559C369.713 162.387 356.156 166.31 343.859 166.31C313.512 166.31 294.034 147.016 294.034 117.425C294.034 87.8332 313.705 69.2872 342.549 69.2872C371.393 69.2872 390.695 85.8342 389.343 120.07C389.233 122.884 386.907 125.11 384.093 125.11H314.075L314.083 125.102ZM370.461 108.807C369.335 94.2001 358.659 86.5145 343.112 86.5145C329.059 86.5145 317.451 94.1917 314.453 108.807H370.461Z" fill="white"/>
<path d="M468.046 158.809V110.268C468.046 98.0974 458.193 87.9592 446.022 88.2028C432.625 88.4632 424.209 99.7857 424.209 113.3V158.809C424.209 161.707 421.857 164.059 418.959 164.059H410.165C407.267 164.059 404.915 161.707 404.915 158.809V76.7795C404.915 73.8817 407.267 71.5299 410.165 71.5299H418.178C420.866 71.5299 423.117 73.5541 423.403 76.2252L424.217 83.8939C429.459 73.7809 440.327 70.0347 450.062 70.0347C461.864 70.0347 473.85 74.9065 479.1 88.5808C486.592 74.9065 498.208 70.2279 510.757 70.2279C536.233 70.2279 549.907 86.3381 549.907 112.939V158.826C549.907 161.723 547.555 164.075 544.657 164.075H535.678C532.781 164.075 530.429 161.723 530.429 158.826V109.244C530.429 97.9126 521.391 88.4212 510.06 88.4044C496.36 88.3792 487.533 99.6261 487.533 113.317V158.826C487.533 161.723 485.181 164.075 482.283 164.075H473.304C470.406 164.075 468.054 161.723 468.054 158.826L468.046 158.809Z" fill="white"/>
<path d="M591.107 38.3771V158.809C591.107 161.707 588.755 164.059 585.857 164.059H577.063C574.165 164.059 571.813 161.707 571.813 158.809V38.3771C571.813 35.4793 574.165 33.1274 577.063 33.1274H585.857C588.755 33.1274 591.107 35.4793 591.107 38.3771Z" fill="white"/>
<path d="M614.331 76.5863V158.809C614.331 161.707 616.683 164.059 619.581 164.059H628.375C631.273 164.059 633.625 161.707 633.625 158.809V76.5863C633.625 73.6885 631.273 71.3367 628.375 71.3367H619.581C616.683 71.3367 614.331 73.6885 614.331 76.5863Z" fill="white"/>
<path d="M718.367 90.5547C716.62 92.6042 713.622 92.9317 711.404 91.3946C705.146 87.0605 698.402 85.7586 690.758 85.7586C678.957 85.5738 671.087 89.5047 671.087 96.8123C671.271 104.489 679.327 107.488 691.128 108.614C708.17 110.109 730.462 113.855 730.278 137.651C730.093 154.886 714.915 166.872 690.943 166.872C677.26 166.872 663.569 164.059 652.028 153.156C650.113 151.342 649.878 148.368 651.449 146.243L655.388 140.91C657.152 138.524 660.579 138.037 662.872 139.918C671.196 146.756 682.014 149.662 691.321 149.821C700.502 149.821 710.799 146.453 710.993 137.835C711.177 129.595 703.315 126.412 689.641 125.093C672.22 123.405 652.179 117.786 651.995 97.3751C651.995 76.9559 673.161 69.2788 690.397 69.2788C702.601 69.2788 712.462 71.6138 721.517 78.0646C724.029 79.8537 724.474 83.4151 722.475 85.7586L718.384 90.5547H718.367Z" fill="white"/>
<path d="M775.601 50.9511V71.8994H797.322C800.22 71.8994 802.572 74.2513 802.572 77.1491V83.3227C802.572 86.2205 800.22 88.5724 797.322 88.5724H775.408V132.594C775.408 142.337 779.717 147.764 788.705 147.764C790.956 147.764 793.4 147.293 795.811 146.512C798.498 145.638 801.388 147.167 802.295 149.847L804.496 156.306C805.428 159.052 803.966 162.059 801.211 162.975C796.726 164.47 792.4 165.184 787.571 165.184C767.529 165.747 756.106 154.324 756.106 132.594V88.5724H743.557C740.659 88.5724 738.308 86.2205 738.308 83.3227V77.1491C738.308 74.2513 740.659 71.8994 743.557 71.8994H756.106V51.9003C756.106 49.2124 758.13 46.9614 760.801 46.6758L769.781 45.7267C772.88 45.3991 775.585 47.8265 775.585 50.9511H775.601Z" fill="white"/>
</svg>
