<svg width="32" height="32" viewBox="0 0 32 32" fill="none" xmlns="http://www.w3.org/2000/svg">
<rect width="32" height="32" rx="5.33333" fill="#5412AE"/>
<path d="M25.4925 10.3668C25.5225 10.2019 25.4715 10.0393 25.3531 9.92104L22.2492 6.82138C22.1309 6.70309 21.9675 6.6524 21.8022 6.68217C21.6369 6.71275 21.5032 6.81736 21.4339 6.97025L18.8966 12.6047C18.8089 12.8002 18.8483 13.0151 18.9999 13.1663C19.0963 13.2621 19.2213 13.3152 19.3523 13.3152C19.4239 13.3152 19.4946 13.2999 19.5622 13.2693L25.2035 10.7354C25.3571 10.6662 25.4621 10.5326 25.4925 10.3676" fill="white"/>
<path d="M16.9968 11.6328C17.0931 11.7655 17.2401 11.842 17.4001 11.842C17.4448 11.842 17.4901 11.8356 17.5351 11.8243C17.7421 11.7688 17.8844 11.6022 17.9051 11.3946L18.7047 5.89776C18.7214 5.73119 18.6578 5.57266 18.5304 5.46403C18.4024 5.3554 18.2361 5.31838 18.0738 5.36103L13.8342 6.49564C13.6719 6.5391 13.5472 6.65497 13.4905 6.81269C13.4342 6.97041 13.4589 7.13939 13.5599 7.2794L16.9978 11.6328H16.9968Z" fill="white"/>
<path d="M26.5255 13.6863C26.4165 13.5591 26.2582 13.4955 26.0865 13.5125L20.5933 14.3099C20.38 14.3316 20.213 14.4732 20.158 14.68C20.1023 14.8869 20.1757 15.0921 20.346 15.2152L24.7119 18.6544C24.7989 18.7171 24.8996 18.7501 25.0046 18.7501C25.0629 18.7501 25.1202 18.7405 25.1749 18.7204C25.3332 18.6641 25.4486 18.5393 25.4922 18.3768L26.6282 14.1425C26.6719 13.9808 26.6335 13.8142 26.5255 13.6863Z" fill="white"/>
<path d="M15.0922 26.6457H16.7531C17.2415 26.6457 17.5319 26.1001 17.2582 25.6961L13.0216 19.4345L16.6919 14.6005C17.0459 14.1338 16.7126 13.4642 16.1263 13.465H15.9696C15.9696 13.465 14.7883 13.4787 14.3389 13.5278C13.5729 13.6115 12.8418 13.8931 12.3804 14.5095L9.20814 18.7513V9.15568C9.20814 8.53766 8.70618 8.03711 8.08732 8.03711H6.98957C6.15274 8.03711 5.47182 8.7171 5.47182 9.55161L5.34375 25.5263C5.34375 26.1436 5.84649 26.6457 6.46456 26.6457H7.70231C8.53357 26.6457 9.20814 25.9721 9.20814 25.1424V20.1338L12.6676 25.3468C13.2062 26.1589 14.1162 26.6464 15.0914 26.6464" fill="white"/>
</svg>
